<?xml version="1.0" encoding="UTF-8" standalone="no"?>
<!-- Generator: Gravit.io -->
<svg xmlns="http://www.w3.org/2000/svg" xmlns:xlink="http://www.w3.org/1999/xlink" style="isolation:isolate" viewBox="0 0 105 100" width="105pt" height="100pt"><defs><clipPath id="_clipPath_PlepIvFNJ7DQQ8GZwgygbjfFvCgYjwJW"><rect width="105" height="100"/></clipPath></defs><g clip-path="url(#_clipPath_PlepIvFNJ7DQQ8GZwgygbjfFvCgYjwJW)"><path d="M 36.5 337 L 77.5 337 C 93.781 337 107 350.219 107 366.5 L 107 407.5 C 107 423.781 93.781 437 77.5 437 L 36.5 437 C 20.219 437 7 423.781 7 407.5 L 7 366.5 C 7 350.219 20.219 337 36.5 337 Z" style="stroke:none;fill:#4169E1;stroke-miterlimit:10;"/><clipPath id="_clipPath_9zu3Mu98uFA0ZDHdQNqxoKoA06hWNI7a"><path d="M 36.5 337 L 77.5 337 C 93.781 337 107 350.219 107 366.5 L 107 407.5 C 107 423.781 93.781 437 77.5 437 L 36.5 437 C 20.219 437 7 423.781 7 407.5 L 7 366.5 C 7 350.219 20.219 337 36.5 337 Z" style="stroke:none;fill:#4169E1;stroke-miterlimit:10;"/></clipPath><g clip-path="url(#_clipPath_9zu3Mu98uFA0ZDHdQNqxoKoA06hWNI7a)"><g clip-path="url(#_clipPath_phjrvfZGjPfRYNDQ1sRmpvSSgiACBQWT)"><text transform="matrix(1,0,0,1,45,465.75)" style="font-family:'Cabin Condensed';font-weight:700;font-size:150px;font-style:normal;fill:#ffffff;stroke:none;">f</text></g><defs><clipPath id="_clipPath_phjrvfZGjPfRYNDQ1sRmpvSSgiACBQWT"><rect x="0" y="0" width="58.875" height="145" transform="matrix(1,0,0,1,45,321)"/></clipPath></defs></g><path d=" M 4 12.771 L 14.057 12.771 L 30.514 48.429 L 23.2 63.971 L 30.514 73.114 L 89.943 73.114 L 89.943 63.971 L 36 63.971 L 39.657 55.743 L 78.971 55.743 L 100 14.6 L 23.2 12.771 L 19.543 5 L 4 5 L 4 12.771 Z " fill="rgb(65,105,225)" vector-effect="non-scaling-stroke" stroke-width="1" stroke="rgb(65,105,225)" stroke-linejoin="round" stroke-linecap="round" stroke-miterlimit="3"/><mask id="_mask_gD45GCAl8glcSn7mS3Z62pAq50ciMDwa"><circle vector-effect="non-scaling-stroke" cx="36.02857142857147" cy="87.25714285714287" r="7.74285714285714" fill="white" stroke="none"/></mask><circle vector-effect="non-scaling-stroke" cx="36.02857142857147" cy="87.25714285714287" r="7.74285714285714" fill="rgb(65,105,225)"/><circle vector-effect="non-scaling-stroke" cx="36.02857142857147" cy="87.25714285714287" r="7.74285714285714" fill="rgb(65,105,225)" mask="url(#_mask_gD45GCAl8glcSn7mS3Z62pAq50ciMDwa)" stroke-width="2" stroke="rgb(65,105,225)" stroke-linejoin="miter" stroke-linecap="butt" stroke-miterlimit="3"/><mask id="_mask_2iYpP1MDxIqEVwvymccaA5J6X7Q7YFJg"><circle vector-effect="non-scaling-stroke" cx="82.19999999999997" cy="87.25714285714287" r="7.742857142857147" fill="white" stroke="none"/></mask><circle vector-effect="non-scaling-stroke" cx="82.19999999999997" cy="87.25714285714287" r="7.742857142857147" fill="rgb(65,105,225)"/><circle vector-effect="non-scaling-stroke" cx="82.19999999999997" cy="87.25714285714287" r="7.742857142857147" fill="rgb(65,105,225)" mask="url(#_mask_2iYpP1MDxIqEVwvymccaA5J6X7Q7YFJg)" stroke-width="2" stroke="rgb(65,105,225)" stroke-linejoin="miter" stroke-linecap="butt" stroke-miterlimit="3"/></g></svg>