<?xml version="1.0" encoding="UTF-8" standalone="no"?>
<!-- Generator: Gravit.io -->
<svg xmlns="http://www.w3.org/2000/svg" xmlns:xlink="http://www.w3.org/1999/xlink" style="isolation:isolate" viewBox="0 0 100 100" width="100pt" height="100pt"><defs><clipPath id="_clipPath_ptmfyREdeoV75uzSmckTuc4HCroQOSP2"><rect width="100" height="100"/></clipPath></defs><g clip-path="url(#_clipPath_ptmfyREdeoV75uzSmckTuc4HCroQOSP2)"><path d="M 136.5 212 L 177.5 212 C 193.781 212 207 225.219 207 241.5 L 207 282.5 C 207 298.781 193.781 312 177.5 312 L 136.5 312 C 120.219 312 107 298.781 107 282.5 L 107 241.5 C 107 225.219 120.219 212 136.5 212 Z" style="stroke:none;fill:#FFFFFF;stroke-miterlimit:10;"/><path d="M 136.5 212 L 177.5 212 C 193.781 212 207 225.219 207 241.5 L 207 282.5 C 207 298.781 193.781 312 177.5 312 L 136.5 312 C 120.219 312 107 298.781 107 282.5 L 107 241.5 C 107 225.219 120.219 212 136.5 212 Z" style="fill:none;stroke:#000000;stroke-width:20;stroke-linecap:square;stroke-miterlimit:2;"/><clipPath id="_clipPath_NbHbC4qCXHqLvqccgNWL0BaztWJyy2AP"><path d="M 136.5 212 L 177.5 212 C 193.781 212 207 225.219 207 241.5 L 207 282.5 C 207 298.781 193.781 312 177.5 312 L 136.5 312 C 120.219 312 107 298.781 107 282.5 L 107 241.5 C 107 225.219 120.219 212 136.5 212 Z" style="stroke:none;fill:#FFFFFF;stroke-miterlimit:10;"/><path d="M 136.5 212 L 177.5 212 C 193.781 212 207 225.219 207 241.5 L 207 282.5 C 207 298.781 193.781 312 177.5 312 L 136.5 312 C 120.219 312 107 298.781 107 282.5 L 107 241.5 C 107 225.219 120.219 212 136.5 212 Z" style="fill:none;stroke:#000000;stroke-width:20;stroke-linecap:square;stroke-miterlimit:2;"/></clipPath><g clip-path="url(#_clipPath_NbHbC4qCXHqLvqccgNWL0BaztWJyy2AP)"><mask id="_mask_oDIOrZtHj3sn7Uzk0Ly87SYx2NaLVlDL"><circle vector-effect="non-scaling-stroke" cx="184.0625" cy="234.93750000000003" r="3.0625" fill="white" stroke="none"/></mask><circle vector-effect="non-scaling-stroke" cx="184.0625" cy="234.93750000000003" r="3.0625" fill="rgb(65,105,225)"/><circle vector-effect="non-scaling-stroke" cx="184.0625" cy="234.93750000000003" r="3.0625" fill="rgb(65,105,225)" mask="url(#_mask_oDIOrZtHj3sn7Uzk0Ly87SYx2NaLVlDL)" stroke-width="20" stroke="rgb(65,105,225)" stroke-linejoin="miter" stroke-linecap="butt" stroke-miterlimit="3"/><mask id="_mask_MNyuKB6ucpp8Am6i0By9A88c4utUVBPX"><circle vector-effect="non-scaling-stroke" cx="157" cy="262" r="24" fill="white" stroke="none"/></mask><circle vector-effect="non-scaling-stroke" cx="157" cy="262" r="24" fill="rgb(255,255,255)"/><circle vector-effect="non-scaling-stroke" cx="157" cy="262" r="24" fill="rgb(255,255,255)" mask="url(#_mask_MNyuKB6ucpp8Am6i0By9A88c4utUVBPX)" stroke-width="20" stroke="rgb(65,105,225)" stroke-linejoin="miter" stroke-linecap="butt" stroke-miterlimit="3"/></g><path d="M 36.5 337 L 77.5 337 C 93.781 337 107 350.219 107 366.5 L 107 407.5 C 107 423.781 93.781 437 77.5 437 L 36.5 437 C 20.219 437 7 423.781 7 407.5 L 7 366.5 C 7 350.219 20.219 337 36.5 337 Z" style="stroke:none;fill:#4169E1;stroke-miterlimit:10;"/><clipPath id="_clipPath_Vi5XxBhtd9cyASPLjcMjXKAjyDtlUYTd"><path d="M 36.5 337 L 77.5 337 C 93.781 337 107 350.219 107 366.5 L 107 407.5 C 107 423.781 93.781 437 77.5 437 L 36.5 437 C 20.219 437 7 423.781 7 407.5 L 7 366.5 C 7 350.219 20.219 337 36.5 337 Z" style="stroke:none;fill:#4169E1;stroke-miterlimit:10;"/></clipPath><g clip-path="url(#_clipPath_Vi5XxBhtd9cyASPLjcMjXKAjyDtlUYTd)"><g clip-path="url(#_clipPath_0HirfEicwav2gXX5RSUFWduCIjl4TUH8)"><text transform="matrix(1,0,0,1,45,465.75)" style="font-family:'Cabin Condensed';font-weight:700;font-size:150px;font-style:normal;fill:#ffffff;stroke:none;">f</text></g><defs><clipPath id="_clipPath_0HirfEicwav2gXX5RSUFWduCIjl4TUH8"><rect x="0" y="0" width="58.875" height="145" transform="matrix(1,0,0,1,45,321)"/></clipPath></defs></g><path d=" M 2.558 46.279 L 97.442 10 L 82.558 90 L 54.651 73.256 L 38.837 84.419 L 40.698 63.023 L 90 18.372 L 29.535 55.581 L 2.558 46.279 Z " fill="rgb(65,105,225)" vector-effect="non-scaling-stroke" stroke-width="5" stroke="rgb(65,105,225)" stroke-linejoin="round" stroke-linecap="round" stroke-miterlimit="3"/><path d=" M 208.5 111 L 219.5 111 L 237.5 150 L 229.5 167 L 237.5 177 L 302.5 177 L 302.5 167 L 243.5 167 L 247.5 158 L 290.5 158 L 313.5 113 L 229.5 111 L 225.5 102.5 L 208.5 102.5 L 208.5 111 Z " fill="rgb(65,105,225)" vector-effect="non-scaling-stroke" stroke-width="5" stroke="rgb(65,105,225)" stroke-linejoin="round" stroke-linecap="round" stroke-miterlimit="3"/><mask id="_mask_lNpg6apWercHdAm6jQzfLpMZrVh3Rzz6"><circle vector-effect="non-scaling-stroke" cx="241.50000000000003" cy="194.50000000000003" r="10.499999999999972" fill="white" stroke="none"/></mask><circle vector-effect="non-scaling-stroke" cx="241.50000000000003" cy="194.50000000000003" r="10.499999999999972" fill="rgb(65,105,225)"/><circle vector-effect="non-scaling-stroke" cx="241.50000000000003" cy="194.50000000000003" r="10.499999999999972" fill="rgb(65,105,225)" mask="url(#_mask_lNpg6apWercHdAm6jQzfLpMZrVh3Rzz6)" stroke-width="20" stroke="rgb(65,105,225)" stroke-linejoin="miter" stroke-linecap="butt" stroke-miterlimit="3"/><mask id="_mask_HqjT5JUp2e5VT9k09AEWZvOyobRQayM7"><circle vector-effect="non-scaling-stroke" cx="294.5" cy="194.50000000000003" r="10.5" fill="white" stroke="none"/></mask><circle vector-effect="non-scaling-stroke" cx="294.5" cy="194.50000000000003" r="10.5" fill="rgb(65,105,225)"/><circle vector-effect="non-scaling-stroke" cx="294.5" cy="194.50000000000003" r="10.5" fill="rgb(65,105,225)" mask="url(#_mask_HqjT5JUp2e5VT9k09AEWZvOyobRQayM7)" stroke-width="20" stroke="rgb(65,105,225)" stroke-linejoin="miter" stroke-linecap="butt" stroke-miterlimit="3"/><path d=" M 167.012 355.657 C 162.883 356.77 177.446 386.069 195.012 401.657 C 207.297 412.559 222.778 411.987 227.012 410.657 C 231.246 409.328 226.693 402.264 231.012 398.657 C 235.331 395.051 242.251 408.628 250.012 410.657 C 257.773 412.687 267.406 412.676 272.012 409.657 C 276.618 406.639 253.556 389.904 255.012 384.657 C 256.468 379.41 276.618 358.151 272.012 355.657 C 267.406 353.164 250.462 354.354 248.012 354.657 C 245.562 354.96 237.384 381.635 231.012 381.657 C 224.64 381.679 230.593 357.914 228.012 354.657 C 225.431 351.401 207.431 350.839 202.012 354.657 C 204.759 356.464 205.563 356.916 207.012 358.657 C 208.461 360.398 208.556 377.557 205.512 380.657 Q 202.468 383.757 187.512 354.657 Q 171.141 354.544 167.012 355.657 Z " fill="rgb(65,105,225)" vector-effect="non-scaling-stroke" stroke-width="1" stroke="rgb(65,105,225)" stroke-linejoin="miter" stroke-linecap="square" stroke-miterlimit="3"/></g></svg>