<?xml version="1.0" encoding="UTF-8" standalone="no"?>
<!-- Generator: Gravit.io -->
<svg xmlns="http://www.w3.org/2000/svg" xmlns:xlink="http://www.w3.org/1999/xlink" style="isolation:isolate" viewBox="0 0 100 100" width="100pt" height="100pt"><defs><clipPath id="_clipPath_fgvttW0e1IR41UqZkJ8C3BVPOlpOhFOq"><rect width="100" height="100"/></clipPath></defs><g clip-path="url(#_clipPath_fgvttW0e1IR41UqZkJ8C3BVPOlpOhFOq)"><path d="M 136.5 212 L 177.5 212 C 193.781 212 207 225.219 207 241.5 L 207 282.5 C 207 298.781 193.781 312 177.5 312 L 136.5 312 C 120.219 312 107 298.781 107 282.5 L 107 241.5 C 107 225.219 120.219 212 136.5 212 Z" style="stroke:none;fill:#FFFFFF;stroke-miterlimit:10;"/><path d="M 136.5 212 L 177.5 212 C 193.781 212 207 225.219 207 241.5 L 207 282.5 C 207 298.781 193.781 312 177.5 312 L 136.5 312 C 120.219 312 107 298.781 107 282.5 L 107 241.5 C 107 225.219 120.219 212 136.5 212 Z" style="fill:none;stroke:#000000;stroke-width:20;stroke-linecap:square;stroke-miterlimit:2;"/><clipPath id="_clipPath_8D5efncyLhdEmzHBjnTgaL2pAtpJyfoC"><path d="M 136.5 212 L 177.5 212 C 193.781 212 207 225.219 207 241.5 L 207 282.5 C 207 298.781 193.781 312 177.5 312 L 136.5 312 C 120.219 312 107 298.781 107 282.5 L 107 241.5 C 107 225.219 120.219 212 136.5 212 Z" style="stroke:none;fill:#FFFFFF;stroke-miterlimit:10;"/><path d="M 136.5 212 L 177.5 212 C 193.781 212 207 225.219 207 241.5 L 207 282.5 C 207 298.781 193.781 312 177.5 312 L 136.5 312 C 120.219 312 107 298.781 107 282.5 L 107 241.5 C 107 225.219 120.219 212 136.5 212 Z" style="fill:none;stroke:#000000;stroke-width:20;stroke-linecap:square;stroke-miterlimit:2;"/></clipPath><g clip-path="url(#_clipPath_8D5efncyLhdEmzHBjnTgaL2pAtpJyfoC)"><mask id="_mask_EMfArXoWU8kmA8AkgDz5B4lK01PNAsyp"><circle vector-effect="non-scaling-stroke" cx="184.0625" cy="234.93750000000003" r="3.0625" fill="white" stroke="none"/></mask><circle vector-effect="non-scaling-stroke" cx="184.0625" cy="234.93750000000003" r="3.0625" fill="rgb(65,105,225)"/><circle vector-effect="non-scaling-stroke" cx="184.0625" cy="234.93750000000003" r="3.0625" fill="rgb(65,105,225)" mask="url(#_mask_EMfArXoWU8kmA8AkgDz5B4lK01PNAsyp)" stroke-width="20" stroke="rgb(65,105,225)" stroke-linejoin="miter" stroke-linecap="butt" stroke-miterlimit="3"/><mask id="_mask_qnXUdfHC9oT1v3ykMA75tUDVbXtBqvbB"><circle vector-effect="non-scaling-stroke" cx="157" cy="262" r="24" fill="white" stroke="none"/></mask><circle vector-effect="non-scaling-stroke" cx="157" cy="262" r="24" fill="rgb(255,255,255)"/><circle vector-effect="non-scaling-stroke" cx="157" cy="262" r="24" fill="rgb(255,255,255)" mask="url(#_mask_qnXUdfHC9oT1v3ykMA75tUDVbXtBqvbB)" stroke-width="20" stroke="rgb(65,105,225)" stroke-linejoin="miter" stroke-linecap="butt" stroke-miterlimit="3"/></g><path d="M 36.5 337 L 77.5 337 C 93.781 337 107 350.219 107 366.5 L 107 407.5 C 107 423.781 93.781 437 77.5 437 L 36.5 437 C 20.219 437 7 423.781 7 407.5 L 7 366.5 C 7 350.219 20.219 337 36.5 337 Z" style="stroke:none;fill:#4169E1;stroke-miterlimit:10;"/><clipPath id="_clipPath_WOKzG5ybOwp6Z6cgXUimFTNacaRANwYU"><path d="M 36.5 337 L 77.5 337 C 93.781 337 107 350.219 107 366.5 L 107 407.5 C 107 423.781 93.781 437 77.5 437 L 36.5 437 C 20.219 437 7 423.781 7 407.5 L 7 366.5 C 7 350.219 20.219 337 36.5 337 Z" style="stroke:none;fill:#4169E1;stroke-miterlimit:10;"/></clipPath><g clip-path="url(#_clipPath_WOKzG5ybOwp6Z6cgXUimFTNacaRANwYU)"><g clip-path="url(#_clipPath_N06X4MqimnWTioUixwEeYuQzsaUWESW5)"><text transform="matrix(1,0,0,1,45,465.75)" style="font-family:'Cabin Condensed';font-weight:700;font-size:150px;font-style:normal;fill:#ffffff;stroke:none;">f</text></g><defs><clipPath id="_clipPath_N06X4MqimnWTioUixwEeYuQzsaUWESW5"><rect x="0" y="0" width="58.875" height="145" transform="matrix(1,0,0,1,45,321)"/></clipPath></defs></g><path d=" M 208.5 111 L 219.5 111 L 237.5 150 L 229.5 167 L 237.5 177 L 302.5 177 L 302.5 167 L 243.5 167 L 247.5 158 L 290.5 158 L 313.5 113 L 229.5 111 L 225.5 102.5 L 208.5 102.5 L 208.5 111 Z " fill="rgb(65,105,225)" vector-effect="non-scaling-stroke" stroke-width="5" stroke="rgb(65,105,225)" stroke-linejoin="round" stroke-linecap="round" stroke-miterlimit="3"/><mask id="_mask_3MKqC0QT21xUboDaAnZRccNl6mv8gUpg"><circle vector-effect="non-scaling-stroke" cx="241.50000000000003" cy="194.50000000000003" r="10.499999999999972" fill="white" stroke="none"/></mask><circle vector-effect="non-scaling-stroke" cx="241.50000000000003" cy="194.50000000000003" r="10.499999999999972" fill="rgb(65,105,225)"/><circle vector-effect="non-scaling-stroke" cx="241.50000000000003" cy="194.50000000000003" r="10.499999999999972" fill="rgb(65,105,225)" mask="url(#_mask_3MKqC0QT21xUboDaAnZRccNl6mv8gUpg)" stroke-width="20" stroke="rgb(65,105,225)" stroke-linejoin="miter" stroke-linecap="butt" stroke-miterlimit="3"/><mask id="_mask_E2gcltjkiL0UV5FbzlzLQgY0YbUk9604"><circle vector-effect="non-scaling-stroke" cx="294.5" cy="194.50000000000003" r="10.5" fill="white" stroke="none"/></mask><circle vector-effect="non-scaling-stroke" cx="294.5" cy="194.50000000000003" r="10.5" fill="rgb(65,105,225)"/><circle vector-effect="non-scaling-stroke" cx="294.5" cy="194.50000000000003" r="10.5" fill="rgb(65,105,225)" mask="url(#_mask_E2gcltjkiL0UV5FbzlzLQgY0YbUk9604)" stroke-width="20" stroke="rgb(65,105,225)" stroke-linejoin="miter" stroke-linecap="butt" stroke-miterlimit="3"/><path d=" M 0.648 29.353 C -3.137 30.373 10.214 57.233 26.317 71.524 C 37.58 81.518 51.772 80.994 55.654 79.775 C 59.535 78.556 55.362 72.08 59.321 68.774 C 63.28 65.468 69.625 77.914 76.739 79.775 C 83.854 81.635 92.685 81.626 96.908 78.858 C 101.131 76.091 79.988 60.749 81.323 55.939 C 82.658 51.129 101.131 31.639 96.908 29.353 C 92.685 27.067 77.152 28.158 74.906 28.436 C 72.66 28.714 65.162 53.169 59.321 53.189 C 53.479 53.209 58.937 31.421 56.571 28.436 C 54.204 25.451 37.702 24.935 32.735 28.436 C 35.253 30.092 35.99 30.507 37.319 32.103 C 38.647 33.699 38.734 49.43 35.943 52.272 Q 33.153 55.114 19.442 28.436 Q 4.433 28.333 0.648 29.353 Z " fill="rgb(65,105,225)" vector-effect="non-scaling-stroke" stroke-width="1" stroke="rgb(65,105,225)" stroke-linejoin="miter" stroke-linecap="square" stroke-miterlimit="3"/></g></svg>